<svg xmlns="http://www.w3.org/2000/svg" viewBox="0 0 930 400" width="930" height="400" font-family="Inter, system-ui, -apple-system, 'Segoe UI', Roboto, sans-serif" role="img" aria-label="Netzplan"><title>Netzplan</title><defs><marker id="arrow" viewBox="0 0 10 10" refX="9" refY="5" markerUnits="userSpaceOnUse" markerWidth="11" markerHeight="11" orient="auto-start-reverse"><path d="M0,0 L10,5 L0,10 z" fill="#64748b"/></marker></defs><rect width="930" height="400" rx="14" fill="#ffffff"/><path d="M180,192.0 C195.0,192.0 195.0,192.0 208,192.0" stroke="#dc2626" stroke-width="2.5" fill="none" marker-end="url(#arrow)"/><path d="M360,192.0 C375.0,192.0 375.0,82.0 388,82.0" stroke="#dc2626" stroke-width="2.5" fill="none" marker-end="url(#arrow)"/><path d="M360,192.0 C375.0,192.0 375.0,192.0 388,192.0" stroke="#94a3b8" stroke-width="1.5" fill="none" marker-end="url(#arrow)"/><path d="M540,82.0 C555.0,82.0 555.0,137.0 568,137.0" stroke="#dc2626" stroke-width="2.5" fill="none" marker-end="url(#arrow)"/><path d="M540,192.0 C555.0,192.0 555.0,137.0 568,137.0" stroke="#94a3b8" stroke-width="1.5" fill="none" marker-end="url(#arrow)"/><path d="M360,192.0 C375.0,192.0 375.0,302.0 388,302.0" stroke="#94a3b8" stroke-width="1.5" fill="none" marker-end="url(#arrow)"/><path d="M720,137.0 C735.0,137.0 735.0,217.0 748,217.0" stroke="#dc2626" stroke-width="2.5" fill="none" marker-end="url(#arrow)"/><path d="M540,302.0 C645.0,302.0 645.0,217.0 748,217.0" stroke="#94a3b8" stroke-width="1.5" fill="none" marker-end="url(#arrow)"/><rect x="30" y="150" width="150" height="84" rx="6" fill="#fee2e2" stroke="#dc2626" stroke-width="2"/><line x1="30" y1="176" x2="180" y2="176" stroke="#94a3b8" stroke-width="1.5"/><line x1="30" y1="208" x2="180" y2="208" stroke="#94a3b8" stroke-width="1.5"/><line x1="80.0" y1="150" x2="80.0" y2="176" stroke="#94a3b8" stroke-width="1.5"/><line x1="80.0" y1="208" x2="80.0" y2="234" stroke="#94a3b8" stroke-width="1.5"/><line x1="130.0" y1="150" x2="130.0" y2="176" stroke="#94a3b8" stroke-width="1.5"/><line x1="130.0" y1="208" x2="130.0" y2="234" stroke="#94a3b8" stroke-width="1.5"/><text x="55.0" y="168" font-size="14" text-anchor="middle" font-weight="400" fill="#1f2937">0</text><text x="105.0" y="168" font-size="14" text-anchor="middle" font-weight="600" fill="#1f2937">3</text><text x="155.0" y="168" font-size="14" text-anchor="middle" font-weight="400" fill="#1f2937">3</text><text x="105.0" y="197" font-size="14" text-anchor="middle" font-weight="600" fill="#1f2937">A  Anforderungen</text><text x="55.0" y="226" font-size="14" text-anchor="middle" font-weight="400" fill="#1f2937">0</text><text x="105.0" y="226" font-size="14" text-anchor="middle" font-weight="400" fill="#dc2626">0</text><text x="155.0" y="226" font-size="14" text-anchor="middle" font-weight="400" fill="#1f2937">3</text><rect x="210" y="150" width="150" height="84" rx="6" fill="#fee2e2" stroke="#dc2626" stroke-width="2"/><line x1="210" y1="176" x2="360" y2="176" stroke="#94a3b8" stroke-width="1.5"/><line x1="210" y1="208" x2="360" y2="208" stroke="#94a3b8" stroke-width="1.5"/><line x1="260.0" y1="150" x2="260.0" y2="176" stroke="#94a3b8" stroke-width="1.5"/><line x1="260.0" y1="208" x2="260.0" y2="234" stroke="#94a3b8" stroke-width="1.5"/><line x1="310.0" y1="150" x2="310.0" y2="176" stroke="#94a3b8" stroke-width="1.5"/><line x1="310.0" y1="208" x2="310.0" y2="234" stroke="#94a3b8" stroke-width="1.5"/><text x="235.0" y="168" font-size="14" text-anchor="middle" font-weight="400" fill="#1f2937">3</text><text x="285.0" y="168" font-size="14" text-anchor="middle" font-weight="600" fill="#1f2937">4</text><text x="335.0" y="168" font-size="14" text-anchor="middle" font-weight="400" fill="#1f2937">7</text><text x="285.0" y="197" font-size="14" text-anchor="middle" font-weight="600" fill="#1f2937">B  Entwurf</text><text x="235.0" y="226" font-size="14" text-anchor="middle" font-weight="400" fill="#1f2937">3</text><text x="285.0" y="226" font-size="14" text-anchor="middle" font-weight="400" fill="#dc2626">0</text><text x="335.0" y="226" font-size="14" text-anchor="middle" font-weight="400" fill="#1f2937">7</text><rect x="390" y="40" width="150" height="84" rx="6" fill="#fee2e2" stroke="#dc2626" stroke-width="2"/><line x1="390" y1="66" x2="540" y2="66" stroke="#94a3b8" stroke-width="1.5"/><line x1="390" y1="98" x2="540" y2="98" stroke="#94a3b8" stroke-width="1.5"/><line x1="440.0" y1="40" x2="440.0" y2="66" stroke="#94a3b8" stroke-width="1.5"/><line x1="440.0" y1="98" x2="440.0" y2="124" stroke="#94a3b8" stroke-width="1.5"/><line x1="490.0" y1="40" x2="490.0" y2="66" stroke="#94a3b8" stroke-width="1.5"/><line x1="490.0" y1="98" x2="490.0" y2="124" stroke="#94a3b8" stroke-width="1.5"/><text x="415.0" y="58" font-size="14" text-anchor="middle" font-weight="400" fill="#1f2937">7</text><text x="465.0" y="58" font-size="14" text-anchor="middle" font-weight="600" fill="#1f2937">6</text><text x="515.0" y="58" font-size="14" text-anchor="middle" font-weight="400" fill="#1f2937">13</text><text x="465.0" y="87" font-size="14" text-anchor="middle" font-weight="600" fill="#1f2937">C  Backend</text><text x="415.0" y="116" font-size="14" text-anchor="middle" font-weight="400" fill="#1f2937">7</text><text x="465.0" y="116" font-size="14" text-anchor="middle" font-weight="400" fill="#dc2626">0</text><text x="515.0" y="116" font-size="14" text-anchor="middle" font-weight="400" fill="#1f2937">13</text><rect x="390" y="150" width="150" height="84" rx="6" fill="#fff" stroke="#94a3b8" stroke-width="1.5"/><line x1="390" y1="176" x2="540" y2="176" stroke="#94a3b8" stroke-width="1.5"/><line x1="390" y1="208" x2="540" y2="208" stroke="#94a3b8" stroke-width="1.5"/><line x1="440.0" y1="150" x2="440.0" y2="176" stroke="#94a3b8" stroke-width="1.5"/><line x1="440.0" y1="208" x2="440.0" y2="234" stroke="#94a3b8" stroke-width="1.5"/><line x1="490.0" y1="150" x2="490.0" y2="176" stroke="#94a3b8" stroke-width="1.5"/><line x1="490.0" y1="208" x2="490.0" y2="234" stroke="#94a3b8" stroke-width="1.5"/><text x="415.0" y="168" font-size="14" text-anchor="middle" font-weight="400" fill="#1f2937">7</text><text x="465.0" y="168" font-size="14" text-anchor="middle" font-weight="600" fill="#1f2937">4</text><text x="515.0" y="168" font-size="14" text-anchor="middle" font-weight="400" fill="#1f2937">11</text><text x="465.0" y="197" font-size="14" text-anchor="middle" font-weight="600" fill="#1f2937">D  Frontend</text><text x="415.0" y="226" font-size="14" text-anchor="middle" font-weight="400" fill="#1f2937">9</text><text x="465.0" y="226" font-size="14" text-anchor="middle" font-weight="400" fill="#1f2937">2</text><text x="515.0" y="226" font-size="14" text-anchor="middle" font-weight="400" fill="#1f2937">13</text><rect x="570" y="95" width="150" height="84" rx="6" fill="#fee2e2" stroke="#dc2626" stroke-width="2"/><line x1="570" y1="121" x2="720" y2="121" stroke="#94a3b8" stroke-width="1.5"/><line x1="570" y1="153" x2="720" y2="153" stroke="#94a3b8" stroke-width="1.5"/><line x1="620.0" y1="95" x2="620.0" y2="121" stroke="#94a3b8" stroke-width="1.5"/><line x1="620.0" y1="153" x2="620.0" y2="179" stroke="#94a3b8" stroke-width="1.5"/><line x1="670.0" y1="95" x2="670.0" y2="121" stroke="#94a3b8" stroke-width="1.5"/><line x1="670.0" y1="153" x2="670.0" y2="179" stroke="#94a3b8" stroke-width="1.5"/><text x="595.0" y="113" font-size="14" text-anchor="middle" font-weight="400" fill="#1f2937">13</text><text x="645.0" y="113" font-size="14" text-anchor="middle" font-weight="600" fill="#1f2937">3</text><text x="695.0" y="113" font-size="14" text-anchor="middle" font-weight="400" fill="#1f2937">16</text><text x="645.0" y="142" font-size="14" text-anchor="middle" font-weight="600" fill="#1f2937">E  Tests</text><text x="595.0" y="171" font-size="14" text-anchor="middle" font-weight="400" fill="#1f2937">13</text><text x="645.0" y="171" font-size="14" text-anchor="middle" font-weight="400" fill="#dc2626">0</text><text x="695.0" y="171" font-size="14" text-anchor="middle" font-weight="400" fill="#1f2937">16</text><rect x="390" y="260" width="150" height="84" rx="6" fill="#fff" stroke="#94a3b8" stroke-width="1.5"/><line x1="390" y1="286" x2="540" y2="286" stroke="#94a3b8" stroke-width="1.5"/><line x1="390" y1="318" x2="540" y2="318" stroke="#94a3b8" stroke-width="1.5"/><line x1="440.0" y1="260" x2="440.0" y2="286" stroke="#94a3b8" stroke-width="1.5"/><line x1="440.0" y1="318" x2="440.0" y2="344" stroke="#94a3b8" stroke-width="1.5"/><line x1="490.0" y1="260" x2="490.0" y2="286" stroke="#94a3b8" stroke-width="1.5"/><line x1="490.0" y1="318" x2="490.0" y2="344" stroke="#94a3b8" stroke-width="1.5"/><text x="415.0" y="278" font-size="14" text-anchor="middle" font-weight="400" fill="#1f2937">7</text><text x="465.0" y="278" font-size="14" text-anchor="middle" font-weight="600" fill="#1f2937">5</text><text x="515.0" y="278" font-size="14" text-anchor="middle" font-weight="400" fill="#1f2937">12</text><text x="465.0" y="307" font-size="14" text-anchor="middle" font-weight="600" fill="#1f2937">G  Dokumentation</text><text x="415.0" y="336" font-size="14" text-anchor="middle" font-weight="400" fill="#1f2937">11</text><text x="465.0" y="336" font-size="14" text-anchor="middle" font-weight="400" fill="#1f2937">4</text><text x="515.0" y="336" font-size="14" text-anchor="middle" font-weight="400" fill="#1f2937">16</text><rect x="750" y="175" width="150" height="84" rx="6" fill="#fee2e2" stroke="#dc2626" stroke-width="2"/><line x1="750" y1="201" x2="900" y2="201" stroke="#94a3b8" stroke-width="1.5"/><line x1="750" y1="233" x2="900" y2="233" stroke="#94a3b8" stroke-width="1.5"/><line x1="800.0" y1="175" x2="800.0" y2="201" stroke="#94a3b8" stroke-width="1.5"/><line x1="800.0" y1="233" x2="800.0" y2="259" stroke="#94a3b8" stroke-width="1.5"/><line x1="850.0" y1="175" x2="850.0" y2="201" stroke="#94a3b8" stroke-width="1.5"/><line x1="850.0" y1="233" x2="850.0" y2="259" stroke="#94a3b8" stroke-width="1.5"/><text x="775.0" y="193" font-size="14" text-anchor="middle" font-weight="400" fill="#1f2937">16</text><text x="825.0" y="193" font-size="14" text-anchor="middle" font-weight="600" fill="#1f2937">1</text><text x="875.0" y="193" font-size="14" text-anchor="middle" font-weight="400" fill="#1f2937">17</text><text x="825.0" y="222" font-size="14" text-anchor="middle" font-weight="600" fill="#1f2937">F  Übergabe</text><text x="775.0" y="251" font-size="14" text-anchor="middle" font-weight="400" fill="#1f2937">16</text><text x="825.0" y="251" font-size="14" text-anchor="middle" font-weight="400" fill="#dc2626">0</text><text x="875.0" y="251" font-size="14" text-anchor="middle" font-weight="400" fill="#1f2937">17</text><rect x="30" y="300" width="150" height="84" rx="6" fill="#fff" stroke="#94a3b8" stroke-width="1.5"/><line x1="30" y1="326" x2="180" y2="326" stroke="#94a3b8" stroke-width="1.5"/><line x1="30" y1="358" x2="180" y2="358" stroke="#94a3b8" stroke-width="1.5"/><line x1="80" y1="300" x2="80" y2="326" stroke="#94a3b8" stroke-width="1.5"/><line x1="80" y1="358" x2="80" y2="384" stroke="#94a3b8" stroke-width="1.5"/><line x1="130" y1="300" x2="130" y2="326" stroke="#94a3b8" stroke-width="1.5"/><line x1="130" y1="358" x2="130" y2="384" stroke="#94a3b8" stroke-width="1.5"/><text x="55" y="318" font-size="12" text-anchor="middle" font-weight="600" fill="#64748b">FAZ</text><text x="105" y="318" font-size="12" text-anchor="middle" font-weight="600" fill="#64748b">D</text><text x="155" y="318" font-size="12" text-anchor="middle" font-weight="600" fill="#64748b">FEZ</text><text x="55" y="376" font-size="12" text-anchor="middle" font-weight="600" fill="#64748b">SAZ</text><text x="105" y="376" font-size="12" text-anchor="middle" font-weight="600" fill="#64748b">GP</text><text x="155" y="376" font-size="12" text-anchor="middle" font-weight="600" fill="#64748b">SEZ</text><text x="105" y="347" font-size="12" text-anchor="middle" font-weight="600" fill="#64748b">Nr.  Vorgang</text><line x1="700" y1="350" x2="740" y2="350" stroke="#dc2626" stroke-width="2.5"/><text x="750" y="355" font-size="13" text-anchor="start" font-weight="600" fill="#dc2626">kritischer Pfad</text><text x="750" y="377" font-size="13" text-anchor="start" font-weight="400" fill="#1f2937">Projektdauer: 17 Tage</text></svg>
