<svg width="227" height="151" viewBox="0 0 227 151" fill="none" xmlns="http://www.w3.org/2000/svg">
<path d="M221 62C232.063 91.3215 223.176 140.125 221.321 149.438C221.137 150.361 220.329 151 219.388 151H162.5C161.395 151 160.5 150.105 160.5 149V62.4516C160.5 62.1543 160.434 61.8607 160.306 61.5923L132.36 2.8593C131.729 1.53214 132.697 0 134.166 0H169.778C170.245 0 170.68 0.149649 171.036 0.451693C175.786 4.48403 210.733 34.7882 221 62Z" fill="#FCBD02"/>
<path d="M141 62C152.063 91.3215 143.176 140.125 141.321 149.438C141.137 150.361 140.329 151 139.388 151H82.5C81.3954 151 80.5 150.105 80.5 149V62.4516C80.5 62.1543 80.4337 61.8607 80.306 61.5923L52.3605 2.8593C51.729 1.53214 52.6967 0 54.1665 0H89.7778C90.2445 0 90.6803 0.149649 91.0361 0.451693C95.7858 4.48403 130.733 34.7882 141 62Z" fill="#FCBD02"/>
<path d="M61 62C72.063 91.3215 63.1756 140.125 61.3209 149.438C61.1371 150.361 60.3288 151 59.3878 151H2.5C1.39543 151 0.5 150.105 0.5 149V62V2C0.5 0.895432 1.39543 0 2.5 0H9.77783C10.2445 0 10.6803 0.149649 11.0361 0.451693C15.7858 4.48403 50.733 34.7882 61 62Z" fill="#147970"/>
</svg>
