<svg width="226" height="213" viewBox="0 0 226 213" fill="none" xmlns="http://www.w3.org/2000/svg">
<path d="M220.5 62C231.563 91.3215 222.676 140.125 220.821 149.438C220.637 150.361 219.829 151 218.888 151H162C160.895 151 160 150.105 160 149V62.4516C160 62.1543 159.934 61.8607 159.806 61.5923L131.86 2.8593C131.229 1.53214 132.197 0 133.666 0H169.278C169.745 0 170.18 0.149649 170.536 0.451693C175.286 4.48403 210.233 34.7882 220.5 62Z" fill="#FCBD02"/>
<path d="M140.5 62C151.563 91.3215 142.676 140.125 140.821 149.438C140.637 150.361 139.829 151 138.888 151H82C80.8954 151 80 150.105 80 149V62.4516C80 62.1543 79.9337 61.8607 79.806 61.5923L51.8605 2.8593C51.229 1.53214 52.1967 0 53.6665 0H89.2778C89.7445 0 90.1803 0.149649 90.5361 0.451693C95.2858 4.48403 130.233 34.7882 140.5 62Z" fill="#FCBD02"/>
<path d="M60.543 151C71.614 121.678 62.72 72.8746 60.8641 63.5615C60.6802 62.6387 59.872 62 58.9311 62H2C0.895431 62 0 62.8954 0 64V151V211C0 212.105 0.895431 213 2 213H9.28534C9.7518 213 10.1874 212.85 10.5431 212.549C15.2943 208.518 50.2684 178.213 60.543 151Z" fill="#147970"/>
</svg>
