<svg xmlns="http://www.w3.org/2000/svg" viewBox="0 0 900 340" width="900" height="340" font-family="Inter, system-ui, -apple-system, 'Segoe UI', Roboto, sans-serif" role="img" aria-label="DNS-Namensraum"><title>DNS-Namensraum</title><defs><marker id="arrow" viewBox="0 0 10 10" refX="9" refY="5" markerUnits="userSpaceOnUse" markerWidth="11" markerHeight="11" orient="auto-start-reverse"><path d="M0,0 L10,5 L0,10 z" fill="#64748b"/></marker></defs><rect width="900" height="340" rx="14" fill="#ffffff"/><line x1="540" y1="56" x2="360" y2="104" stroke="#94a3b8" stroke-width="1.5"/><line x1="540" y1="56" x2="540" y2="104" stroke="#94a3b8" stroke-width="1.5"/><line x1="540" y1="56" x2="720" y2="104" stroke="#94a3b8" stroke-width="1.5"/><line x1="540" y1="136" x2="540" y2="184" stroke="#94a3b8" stroke-width="1.5"/><line x1="540" y1="216" x2="410" y2="264" stroke="#94a3b8" stroke-width="1.5"/><line x1="540" y1="216" x2="540" y2="264" stroke="#94a3b8" stroke-width="1.5"/><line x1="540" y1="216" x2="670" y2="264" stroke="#94a3b8" stroke-width="1.5"/><rect x="480" y="24" width="120" height="32" rx="16" fill="#fee2e2" stroke="#dc2626" stroke-width="1.5"/><text x="540" y="45" font-size="14" text-anchor="middle" font-weight="600" fill="#1f2937">&quot;.&quot; (Root)</text><rect x="300" y="104" width="120" height="32" rx="16" fill="#fef3c7" stroke="#d97706" stroke-width="1.5"/><text x="360" y="125" font-size="14" text-anchor="middle" font-weight="600" fill="#1f2937">at</text><rect x="480" y="104" width="120" height="32" rx="16" fill="#fef3c7" stroke="#d97706" stroke-width="1.5"/><text x="540" y="125" font-size="14" text-anchor="middle" font-weight="600" fill="#1f2937">com</text><rect x="660" y="104" width="120" height="32" rx="16" fill="#fef3c7" stroke="#d97706" stroke-width="1.5"/><text x="720" y="125" font-size="14" text-anchor="middle" font-weight="600" fill="#1f2937">org</text><rect x="480" y="184" width="120" height="32" rx="16" fill="#dbeafe" stroke="#2563eb" stroke-width="1.5"/><text x="540" y="205" font-size="14" text-anchor="middle" font-weight="600" fill="#1f2937">example</text><rect x="350" y="264" width="120" height="32" rx="16" fill="#d1fae5" stroke="#059669" stroke-width="1.5"/><text x="410" y="285" font-size="14" text-anchor="middle" font-weight="600" fill="#1f2937">www</text><rect x="480" y="264" width="120" height="32" rx="16" fill="#d1fae5" stroke="#059669" stroke-width="1.5"/><text x="540" y="285" font-size="14" text-anchor="middle" font-weight="600" fill="#1f2937">mail</text><rect x="610" y="264" width="120" height="32" rx="16" fill="#d1fae5" stroke="#059669" stroke-width="1.5"/><text x="670" y="285" font-size="14" text-anchor="middle" font-weight="600" fill="#1f2937">corp</text><text x="40" y="45" font-size="13" text-anchor="start" font-weight="600" fill="#dc2626">Root-Zone</text><text x="40" y="125" font-size="13" text-anchor="start" font-weight="600" fill="#d97706">Top-Level-Domains</text><text x="40" y="205" font-size="13" text-anchor="start" font-weight="600" fill="#2563eb">Second-Level-Domain</text><text x="40" y="285" font-size="13" text-anchor="start" font-weight="600" fill="#059669">Hosts / Subdomains</text><text x="540" y="320" font-size="12" text-anchor="middle" font-weight="400" fill="#64748b">FQDN: www.example.com.</text></svg>
